# xmcd CD database file
#
# Track frame offsets:
#	150
#	6000
#	24815
#	31658
#	49143
#	54514
#	77659
#	91615
#	97731
#	135819
#	160620
#	179234
#	189880
#	196607
#	217746
#
# Disc length: 2920 seconds
#
# Revision: 0
# Processed by: cddbd v1.5.2PL0 Copyright (c) Steve Scherf et al.
# Submitted via: CDex 1.70beta2
#
DISCID=990b660f
DTITLE=Laia Genc' Liaison Tonique - Beyond
DYEAR=2012
DGENRE=Jazz
TTITLE0=Opening
TTITLE1=On The Run
TTITLE2=Interlude I
TTITLE3=Orfff
TTITLE4=Interlude II
TTITLE5=Thirsty Camel
TTITLE6=Fooob
TTITLE7=Interlude III
TTITLE8=Strange Encounter
TTITLE9=Stop And Snooze
TTITLE10=Poles Apart
TTITLE11=Fanfare
TTITLE12=Interlude IV
TTITLE13=Remember When
TTITLE14=The End
EXTD=YEAR: 2012
EXTT0=
EXTT1=
EXTT2=
EXTT3=
EXTT4=
EXTT5=
EXTT6=
EXTT7=
EXTT8=
EXTT9=
EXTT10=
EXTT11=
EXTT12=
EXTT13=
EXTT14=
PLAYORDER=
